<?xml version="1.0" standalone="no"?>
<!DOCTYPE svg PUBLIC "-//W3C//DTD SVG 20010904//EN"
 "http://www.w3.org/TR/2001/REC-SVG-20010904/DTD/svg10.dtd">
<svg version="1.0" xmlns="http://www.w3.org/2000/svg"
 width="260.000000pt" height="260.000000pt" viewBox="0 0 260.000000 260.000000"
 preserveAspectRatio="xMidYMid meet">
<metadata>
Created by potrace 1.11, written by Peter Selinger 2001-2013
</metadata>
<g transform="translate(0.000000,260.000000) scale(0.100000,-0.100000)"
fill="#000000" stroke="none">
<path d="M356 2318 c-166 -21 -313 -163 -346 -333 -8 -43 -10 -252 -8 -720 3
-648 3 -661 24 -712 49 -119 145 -210 264 -250 64 -22 71 -22 720 -22 686 -1
714 1 804 44 64 31 152 120 186 188 37 77 42 111 44 312 1 140 -1 162 -16 177
-10 10 -24 18 -31 18 -7 0 -41 -28 -75 -63 l-62 -63 0 -124 c0 -140 -12 -179
-69 -236 -71 -72 -34 -69 -752 -70 -730 -1 -711 -2 -784 71 -75 74 -74 61 -71
790 3 707 0 674 68 744 18 19 52 43 75 53 40 18 78 19 723 18 l682 -1 44 45
c49 51 55 78 22 100 -57 36 -101 38 -748 40 -350 0 -662 -2 -694 -6z"/>
<path d="M2175 2300 c-11 -4 -54 -42 -96 -84 l-77 -76 207 -209 206 -208 78
76 c84 82 104 123 93 184 -5 28 -35 64 -139 171 -73 74 -146 140 -161 146 -32
12 -83 12 -111 0z"/>
<path d="M1417 1553 l-487 -488 0 -207 0 -208 208 0 207 0 488 488 489 489
-204 206 c-113 114 -207 207 -209 207 -3 0 -224 -219 -492 -487z m511 285 c7
-7 12 -18 12 -25 0 -7 -122 -135 -270 -283 -239 -238 -273 -269 -290 -260 -11
6 -20 18 -20 28 0 18 527 552 545 552 6 0 16 -5 23 -12z m-577 -769 l111 -111
-83 -84 c-79 -79 -86 -84 -126 -84 -27 0 -43 5 -44 13 -1 6 -1 38 0 70 l1 57
-70 0 -70 0 0 42 c0 40 5 48 82 125 46 46 84 83 85 83 2 0 53 -50 114 -111z"/>
</g>
</svg>
